<svg width="176" height="30" viewBox="0 0 176 30" fill="none" xmlns="http://www.w3.org/2000/svg">
<path d="M17.5166 26.9736H22.9226V17.475H32.6467V26.9736H38.0528V2.97363H32.6467V12.3708H22.9226V2.97363H17.5166V26.9736Z" fill="white"/>
<path d="M117.177 26.9736H125.412C132.217 26.9736 137.73 21.599 137.73 14.9736C137.73 8.34828 132.217 2.97363 125.412 2.97363H117.177V26.9736ZM122.613 22.0384V7.90884H125.412C129.495 7.90884 132.251 11.0863 132.251 14.9736C132.251 18.861 129.495 22.0384 125.412 22.0384H122.613Z" fill="white"/>
<path d="M91.2051 27V3H85.7691V17.8394L74.101 3H69.4609V27H74.897V12.1606L86.565 27H91.2051Z" fill="white"/>
<path d="M62.8164 27H68.2525V3H62.8164V27Z" fill="white"/>
<path d="M110.533 27H115.969V3H110.533V27Z" fill="white"/>
<path d="M39.2607 27.0264H54.3609V21.8827H44.6772V17.585H52.5464V12.4414H44.6772V8.14368H54.3609V3H39.2607V27.0264Z" fill="white"/>
<path d="M137.713 27.0264H152.813V21.8827H143.129V17.585H150.999V12.4414H143.129V8.14368H152.813V3H137.713V27.0264Z" fill="white"/>
<path d="M6.04004 27H11.4761V8.13803H17.5161V3H0V8.13803H6.04004V27Z" fill="white"/>
<path d="M101.328 27.3586C106.529 27.3586 109.929 24.1776 109.929 20.083C109.929 16.2929 107.515 13.7887 103.537 12.7397L100.784 12.0291C98.8799 11.5215 97.826 10.777 97.86 9.45722C97.894 8.13746 99.1178 7.4945 100.716 7.4945C102.042 7.4945 103.503 8.13746 104.047 10.0325H109.419C109.249 6.37778 106.053 2.52002 100.716 2.52002C95.7182 2.52002 92.4205 5.32874 92.4205 9.82946C92.4545 13.6195 95.1063 15.9883 98.9479 17.0374L101.294 17.6465C103.605 18.2895 104.455 19.1355 104.455 20.2522C104.455 21.6058 103.129 22.3841 101.328 22.3841C99.1858 22.3841 97.588 21.2674 97.214 19.237H91.8086C91.9786 23.2639 95.3782 27.3586 101.328 27.3586Z" fill="white"/>
<path d="M154.021 27H159.458L159.435 17.0958H160.287L168.356 27H174.86L166.313 16.4197C169.412 15.338 171.046 13.3437 171.046 10.2338C171.046 6.27887 168.118 3 163.555 3H154.021V27ZM159.458 12.5324V7.93521H162.908C164.509 7.93521 165.666 8.78028 165.666 10.2338C165.666 11.6197 164.509 12.5324 162.908 12.5324H159.458Z" fill="white"/>
</svg>
